<?xml version="1.0" encoding="utf-8"?>
<!-- Generator: Adobe Illustrator 23.0.1, SVG Export Plug-In . SVG Version: 6.00 Build 0)  -->
<svg version="1.1" id="Livello_1" xmlns="http://www.w3.org/2000/svg" xmlns:xlink="http://www.w3.org/1999/xlink" x="0px" y="0px"
	 viewBox="0 0 500 330" style="enable-background:new 0 0 500 330;" xml:space="preserve">
<style type="text/css">
	.st0{fill:#FFFFFF;stroke:#FFFFFF;stroke-width:7;stroke-miterlimit:10;}
	.st1{fill:none;}
	.st2{fill:#FFFFFF;stroke:#FFFFFF;stroke-miterlimit:10;}
	.st3{font-family:'Inter-Bold';}
	.st4{font-size:238.0952px;}
</style>
<g>
	<path class="st0" d="M26.61,24.02c4.84,2.05,10.17,3.54,14.46,6.23c41.38,25.95,64.88,62.06,79.14,102.92
		c6.74,19.3,11.33,39.13,17.04,58.69c1.38,4.72,3.34,9.32,5.03,13.98c1.37,0.21,2.75,0.41,4.12,0.62c2.75-5.07,5.78-10.05,8.2-15.23
		c12.97-27.75,24.39-56.1,39.22-83.11c8.4-15.3,22.31-28.43,33.74-42.53c1.52-1.88,3.07-3.74,6.63-8.07
		c-26.38,6.84-35.85,25.48-52.93,40.18c-1.87-18.55,2.83-33.42,15.61-46.23c12.88-12.9,29.89-19.89,49.32-22.23
		c13.67-1.64,27.53-2.13,41.31-3.14c0,0.67,0,1.35,0,2.02c-1.72,7.77-4.56,15.5-4.96,23.33c-1.82,34.99-20.4,52.73-61.66,57.15
		c-9.19,0.98-13.62,5.5-17.45,11.82c-18.96,31.35-28.36,65.28-37.57,99.26c-3.01,11.1-4.88,22.42-7.91,33.51
		c-1.08,3.96-2.6,10.29-6.17,11.3c-4.76,0-9.52,0-14.29,0c-8.88-2.89-7.5-10.04-9.03-15.9c-10.38-39.62-19.01-79.64-31.46-118.79
		C84.3,89.85,63.06,53.06,26.61,24.02z"/>
</g>
<rect x="199.71" y="97.83" class="st1" width="302.08" height="176.19"/>
<text transform="matrix(1 0 0 1 199.7088 270.9916)" class="st2 st3 st4">eg</text>
</svg>
